# Blender v2.82 (sub 7) OBJ File: 'Peg Game.blend'
# www.blender.org
mtllib Peg Board.mtl
o Plane
v -2.763084 0.000000 -0.295108
v -2.396277 0.000000 -0.295108
v -2.763084 0.000000 -1.094664
v -2.396277 0.000000 -1.094664
v -2.763084 0.000000 0.304892
v -2.396277 0.000000 0.304892
v -1.996277 0.000000 0.304892
v -1.596277 0.000000 -0.295108
v -1.596277 0.000000 -1.095108
v -1.596277 0.000000 0.304892
v -2.763084 0.000000 0.804892
v -2.396277 0.000000 0.804892
v -1.596277 0.000000 0.804892
v -1.996277 0.000000 0.804892
v -1.096277 0.000000 -0.295108
v -1.096277 0.000000 -1.095108
v -1.096277 0.000000 0.304892
v -1.096277 0.000000 0.804892
v -0.596277 0.000000 -0.295108
v -0.596277 0.000000 -1.095108
v -0.596277 0.000000 0.304892
v 0.003723 0.000000 -0.295108
v 0.003723 0.000000 -1.095108
v 0.403723 0.000000 -0.295108
v 0.403723 0.000000 -1.095108
v 0.003723 0.000000 0.304892
v 0.403723 0.000000 0.304892
v 0.003723 0.000000 0.804892
v 0.403723 0.000000 0.804892
v -0.596277 0.000000 0.804892
v 0.003723 0.000000 1.204892
v 0.403723 0.000000 1.204892
v -0.596277 0.000000 1.204892
v 0.003723 0.000000 1.604892
v 0.403723 0.000000 1.604892
v -0.596277 0.000000 1.604892
v -0.708480 0.000000 0.804892
v -0.819340 0.000000 0.924054
v -0.704344 0.000000 1.604892
v -0.704344 0.000000 1.204892
v -0.735486 0.000000 1.049049
v -0.706412 0.000000 1.004892
v -0.902378 0.000000 0.804892
v -0.947043 0.000000 0.838244
v -0.704344 0.000000 1.404892
v -0.819396 0.000000 1.484200
v -0.733671 0.000000 1.354484
v -1.104344 0.000000 1.604892
v -0.904344 0.000000 1.604892
v -0.949462 0.000000 1.569925
v -1.596277 0.000000 1.204892
v -1.596277 0.000000 1.604892
v -1.496277 0.000000 1.204892
v -1.496277 0.000000 1.604892
v -1.500583 0.000000 0.804892
v -1.300310 0.000000 1.604892
v -1.496277 0.000000 1.404892
v -1.255643 0.000000 1.571053
v -1.385285 0.000000 1.487133
v -1.467852 0.000000 1.358871
v -1.498430 0.000000 1.004892
v -1.298430 0.000000 0.804892
v -1.256470 0.000000 0.838731
v -1.382823 0.000000 0.924006
v -1.465945 0.000000 1.052267
v -1.996277 0.000000 1.204892
v -1.996277 0.000000 1.604892
v -2.396277 0.000000 1.204892
v -2.396277 0.000000 1.604892
v -2.763084 0.000000 1.604892
v -2.763084 0.000000 1.204892
v 0.003723 0.000000 2.004892
v 0.403723 0.000000 2.004892
v -0.596277 0.000000 2.004892
v -1.596277 0.000000 2.004892
v -1.996277 0.000000 2.004892
v -2.396277 0.000000 2.004892
v -2.763084 0.000000 2.004892
v -1.496277 0.000000 2.004892
v -0.704344 0.000000 2.004892
v -1.300310 0.000000 2.004892
v -0.904344 0.000000 2.004892
v -1.104344 0.000000 2.004892
v -2.763084 -0.400000 -0.295108
v -2.763084 -0.400000 -1.094664
v -2.396277 -0.400000 -1.094664
v -2.763084 -0.400000 0.304892
v -1.596277 -0.400000 -1.095108
v -2.763084 -0.400000 0.804892
v -1.096277 -0.400000 -1.095108
v -0.596277 -0.400000 -1.095108
v 0.003723 -0.400000 -1.095108
v 0.403723 -0.400000 -0.295108
v 0.403723 -0.400000 -1.095108
v 0.403723 -0.400000 0.304892
v 0.403723 -0.400000 0.804892
v 0.403723 -0.400000 1.204892
v 0.403723 -0.400000 1.604892
v -2.763084 -0.400000 1.604892
v -2.763084 -0.400000 1.204892
v 0.003723 -0.400000 2.004892
v 0.403723 -0.400000 2.004892
v -0.596277 -0.400000 2.004892
v -1.596277 -0.400000 2.004892
v -1.996277 -0.400000 2.004892
v -2.396277 -0.400000 2.004892
v -2.763084 -0.400000 2.004892
v -1.496277 -0.400000 2.004892
v -0.704344 -0.400000 2.004892
v -1.300310 -0.400000 2.004892
v -0.904344 -0.400000 2.004892
v -1.104344 -0.400000 2.004892
v -2.396277 -0.400000 -0.295108
v -1.996277 -0.400000 0.304892
v -1.596277 -0.400000 -0.295108
v -1.096277 -0.400000 0.804892
v -0.596277 -0.400000 -0.295108
v -0.596277 -0.400000 0.304892
v 0.003723 -0.400000 -0.295108
v 0.003723 -0.400000 0.304892
v -0.819340 -0.400000 0.924054
v -0.704344 -0.400000 1.204892
v -0.735486 -0.400000 1.049049
v -0.947043 -0.400000 0.838244
v -0.819396 -0.400000 1.484200
v -0.733671 -0.400000 1.354484
v -1.104344 -0.400000 1.604892
v -0.949462 -0.400000 1.569925
v -1.496277 -0.400000 1.204892
v -1.255643 -0.400000 1.571053
v -1.385285 -0.400000 1.487133
v -1.467852 -0.400000 1.358871
v -1.256470 -0.400000 0.838731
v -1.382823 -0.400000 0.924006
v -1.465945 -0.400000 1.052267
v -0.596277 -0.400000 1.604892
v 0.003723 -0.400000 1.604892
v 0.003723 -0.400000 1.204892
v -0.596277 -0.400000 1.204892
v -0.596277 -0.400000 0.804892
v 0.003723 -0.400000 0.804892
v -1.096277 -0.400000 0.304892
v -1.096277 -0.400000 -0.295108
v -1.596277 -0.400000 0.304892
v -2.396653 -0.400000 0.304892
v -2.396653 -0.400000 0.804892
v -2.396653 -0.400000 1.204892
v -1.996653 -0.400000 1.204892
v -1.996653 -0.400000 0.804892
v -1.996653 -0.400000 1.604892
v -2.396653 -0.400000 1.604892
v -1.596653 -0.400000 1.604892
v -1.596653 -0.400000 0.804892
v -1.596653 -0.400000 1.204892
v -0.704344 -0.400000 1.604892
v -0.711076 -0.400000 0.804892
v -1.499000 -0.400000 0.804892
v -1.496653 -0.400000 1.604892
v -1.300310 -0.400000 1.604892
v -0.904344 -0.400000 1.604892
v -0.596277 0.000000 1.004892
vt 0.558522 0.012811
vt 0.558522 0.062274
vt 0.451662 0.062274
vt 0.451662 0.012811
vt 0.638712 0.012811
vt 0.638712 0.062274
vt 0.638712 0.116212
vt 0.558522 0.170151
vt 0.451602 0.170151
vt 0.557584 0.673391
vt 0.653940 0.671402
vt 0.623382 0.627144
vt 0.705537 0.012811
vt 0.705537 0.062274
vt 0.705537 0.116212
vt 0.705537 0.170151
vt 0.638712 0.170151
vt 0.705537 0.183055
vt 0.705537 0.210315
vt 0.705537 0.237574
vt 0.638712 0.237574
vt 0.585185 0.571821
vt 0.519387 0.618068
vt 0.558522 0.237574
vt 0.451602 0.237574
vt 0.119349 0.147658
vt 0.119349 0.215081
vt 0.004491 0.690171
vt 0.012429 0.147658
vt 0.451602 0.304997
vt 0.558522 0.304997
vt 0.558522 0.385905
vt 0.451602 0.385905
vt 0.558522 0.439844
vt 0.451602 0.439844
vt 0.638712 0.385905
vt 0.638712 0.439844
vt 0.705537 0.385905
vt 0.705537 0.439844
vt 0.638712 0.304997
vt 0.705537 0.304997
vt 0.732267 0.304997
vt 0.758997 0.304997
vt 0.758997 0.385905
vt 0.758997 0.439844
vt 0.812456 0.304997
vt 0.812456 0.385905
vt 0.812456 0.439844
vt 0.758997 0.290425
vt 0.785727 0.290425
vt 0.812456 0.290425
vt 0.732267 0.290146
vt 0.631928 0.493455
vt 0.639229 0.474542
vt 0.632165 0.474729
vt 0.610391 0.490373
vt 0.653940 0.459084
vt 0.632273 0.514199
vt 0.625204 0.511828
vt 0.640016 0.533282
vt 0.778989 0.286470
vt 0.796326 0.274911
vt 0.656119 0.707599
vt 0.656119 0.680629
vt 0.651445 0.686714
vt 0.807783 0.257372
vt 0.812456 0.263456
vt 0.758997 0.170151
vt 0.812456 0.170151
vt 0.812456 0.183636
vt 0.785727 0.183636
vt 0.758997 0.183636
vt 0.732267 0.183345
vt 0.686885 0.867160
vt 0.713076 0.867160
vt 0.692855 0.862597
vt 0.660694 0.867160
vt 0.675528 0.851281
vt 0.779576 0.187469
vt 0.796718 0.198602
vt 0.710059 0.215973
vt 0.721456 0.198934
vt 0.738598 0.187726
vt 0.758997 0.116212
vt 0.758997 0.062274
vt 0.812456 0.116212
vt 0.812456 0.062274
vt 0.758997 0.012811
vt 0.812456 0.012811
vt 0.865916 0.304997
vt 0.865916 0.385905
vt 0.865916 0.439844
vt 0.865916 0.012811
vt 0.865916 0.062274
vt 0.865916 0.116212
vt 0.865916 0.170151
vt 0.865916 0.290425
vt 0.865916 0.183636
vt 0.865916 0.263456
vt 0.686885 0.921099
vt 0.660694 0.921099
vt 0.812456 0.236486
vt 0.865916 0.236486
vt 0.713076 0.921099
vt 0.321829 0.883060
vt 0.321829 0.829133
vt 0.471516 0.829133
vt 0.471516 0.883060
vt 0.503763 0.995469
vt 0.503763 0.844441
vt 0.477578 0.844441
vt 0.477578 0.995469
vt 0.321829 0.775207
vt 0.471516 0.775207
vt 0.154178 0.838467
vt 0.154178 0.892393
vt 0.004491 0.892393
vt 0.004491 0.838467
vt 0.321828 0.572984
vt 0.321828 0.465191
vt 0.471516 0.465191
vt 0.471516 0.572984
vt 0.321828 0.721281
vt 0.471516 0.721281
vt 0.312847 0.721366
vt 0.312847 0.775297
vt 0.163160 0.775297
vt 0.163160 0.721366
vt 0.154178 0.622764
vt 0.154178 0.690171
vt 0.004491 0.622764
vt 0.321828 0.653873
vt 0.471516 0.653873
vt 0.312847 0.573056
vt 0.312847 0.653952
vt 0.163160 0.653952
vt 0.163160 0.573056
vt 0.154178 0.465463
vt 0.154178 0.514914
vt 0.004491 0.514914
vt 0.004491 0.465463
vt 0.813301 0.458754
vt 0.813301 0.512679
vt 0.663613 0.512679
vt 0.663613 0.458754
vt 0.813301 0.593566
vt 0.813301 0.608135
vt 0.663613 0.608135
vt 0.663613 0.593566
vt 0.813301 0.673282
vt 0.813301 0.686763
vt 0.663613 0.686763
vt 0.663613 0.673282
vt 0.312847 0.829227
vt 0.163160 0.829227
vt 0.312847 0.883158
vt 0.163160 0.883158
vt 0.813301 0.635097
vt 0.663613 0.635097
vt 0.813301 0.740688
vt 0.663613 0.740688
vt 0.529947 0.995469
vt 0.529947 0.844441
vt 0.813301 0.794613
vt 0.663613 0.794613
vt 0.154178 0.757579
vt 0.004491 0.757579
vt 0.813301 0.844063
vt 0.663613 0.844063
vt 0.813301 0.662060
vt 0.663613 0.662060
vt 0.312847 0.465194
vt 0.163160 0.465194
vt 0.880751 0.004531
vt 0.960922 0.004531
vt 0.960922 0.155559
vt 0.880751 0.155559
vt 0.942309 0.617276
vt 0.962950 0.617276
vt 0.962950 0.768304
vt 0.942309 0.768304
vt 0.632978 0.995469
vt 0.612906 0.995469
vt 0.612906 0.844441
vt 0.632978 0.844441
vt 0.921982 0.617276
vt 0.921982 0.768304
vt 0.981566 0.457186
vt 0.981566 0.608214
vt 0.998879 0.608214
vt 0.998879 0.457186
vt 0.899497 0.608214
vt 0.899497 0.457186
vt 0.820224 0.457186
vt 0.820224 0.608214
vt 0.820197 0.617276
vt 0.900368 0.617276
vt 0.900368 0.768304
vt 0.820197 0.768304
vt 0.905031 0.617276
vt 0.905031 0.768304
vt 0.628962 0.835379
vt 0.628962 0.684351
vt 0.608644 0.684351
vt 0.608644 0.835379
vt 0.880751 0.164621
vt 0.960920 0.164621
vt 0.960920 0.315649
vt 0.880751 0.315649
vt 0.961529 0.457186
vt 0.961529 0.608214
vt 0.610643 0.995469
vt 0.610643 0.844441
vt 0.593750 0.844441
vt 0.593750 0.995469
vt 0.570582 0.995469
vt 0.549281 0.995469
vt 0.549281 0.844441
vt 0.570582 0.844441
vt 0.820197 0.777366
vt 0.820197 0.928394
vt 0.900368 0.928394
vt 0.900368 0.777366
vt 0.649551 0.835379
vt 0.649551 0.684351
vt 0.901308 0.608214
vt 0.901308 0.457186
vt 0.591067 0.684351
vt 0.591067 0.835379
vt 0.980970 0.315649
vt 0.963841 0.315649
vt 0.963841 0.164621
vt 0.980970 0.164621
vt 0.479214 0.684351
vt 0.586106 0.684351
vt 0.586106 0.835379
vt 0.479214 0.835379
vt 0.650556 0.995469
vt 0.650556 0.844441
vt 0.532656 0.995469
vt 0.532656 0.844441
vt 0.572854 0.844441
vt 0.572854 0.995469
vt 0.980276 0.617276
vt 0.980276 0.768304
vt 0.199539 0.215081
vt 0.199539 0.282504
vt 0.119349 0.282504
vt 0.904778 0.777285
vt 0.904778 0.858193
vt 0.971603 0.858193
vt 0.971603 0.777285
vt 0.266364 0.066750
vt 0.266364 0.147658
vt 0.199539 0.147658
vt 0.199539 0.066750
vt 0.319824 0.147658
vt 0.319824 0.066750
vt 0.373284 0.066750
vt 0.373284 0.147658
vt 0.426743 0.066750
vt 0.426743 0.147658
vt 0.373284 0.012811
vt 0.426743 0.012811
vt 0.319824 0.012811
vt 0.266364 0.012811
vt 0.199539 0.012811
vt 0.012429 0.012811
vt 0.119349 0.012811
vt 0.119349 0.066750
vt 0.012429 0.066750
vt 0.012429 0.215081
vt 0.012429 0.282504
vt 0.119349 0.390381
vt 0.012489 0.390381
vt 0.119349 0.439844
vt 0.012489 0.439844
vt 0.426744 0.439844
vt 0.373284 0.439844
vt 0.373284 0.390432
vt 0.426744 0.390381
vt 0.319824 0.439844
vt 0.319824 0.390432
vt 0.266364 0.439844
vt 0.266364 0.390432
vt 0.199539 0.439844
vt 0.199539 0.390432
vt 0.199539 0.336443
vt 0.905405 0.457106
vt 0.905344 0.538014
vt 0.958804 0.538055
vt 0.373284 0.282555
vt 0.426743 0.282504
vt 0.426744 0.336443
vt 0.373284 0.336493
vt 0.319824 0.336493
vt 0.266364 0.336493
vt 0.319824 0.282555
vt 0.266364 0.282555
vt 0.905344 0.605437
vt 0.958804 0.605478
vt 0.904778 0.925616
vt 0.920121 0.925616
vt 0.971603 0.925616
vt 0.266364 0.215081
vt 0.266364 0.269387
vt 0.426743 0.162230
vt 0.373284 0.162230
vt 0.319824 0.162230
vt 0.266364 0.163138
vt 0.319824 0.269019
vt 0.426743 0.269019
vt 0.373284 0.269070
vt 0.426743 0.242594
vt 0.373284 0.242594
vt 0.715433 0.850805
vt 0.715433 0.904743
vt 0.741624 0.904743
vt 0.741624 0.850805
vt 0.426743 0.189199
vt 0.373284 0.189199
vt 0.426743 0.216169
vt 0.373284 0.216169
vt 0.623752 0.462543
vt 0.601819 0.477959
vn 0.0000 1.0000 0.0000
vn 0.0000 -1.0000 0.0000
vn -1.0000 0.0000 0.0000
vn 0.0000 0.0000 1.0000
vn 0.0000 0.0000 -1.0000
vn 1.0000 0.0000 0.0000
vn -0.0006 0.0000 -1.0000
vn 0.9834 0.0000 -0.1815
vn -0.9813 0.0000 -0.1924
vn 0.9808 0.0000 0.1949
vn -0.5577 0.0000 0.8300
vn -0.8321 0.0000 -0.5547
vn 0.8392 0.0000 0.5438
vn 0.2183 0.0000 -0.9759
vn -0.2181 0.0000 0.9759
vn -0.8304 0.0000 0.5571
vn 0.2067 0.0000 0.9784
vn -0.2202 0.0000 -0.9754
vn 0.8321 0.0000 -0.5547
vn 0.5434 0.0000 -0.8395
vn -0.5503 0.0000 -0.8350
vn -0.8343 0.0000 -0.5513
vn 0.5594 0.0000 0.8289
vn -0.9806 0.0000 0.1960
vn 0.8408 0.0000 -0.5413
usemtl None
s off
f 1/1/1 2/2/1 4/3/1 3/4/1
f 2/2/1 1/1/1 5/5/1 6/6/1
f 2/2/1 6/6/1 7/7/1
f 4/3/1 2/2/1 8/8/1 9/9/1
f 8/10/1 7/11/1 10/12/1
f 6/6/1 5/5/1 11/13/1 12/14/1
f 7/7/1 6/6/1 12/14/1 14/15/1
f 13/16/1 10/17/1 7/7/1 14/15/1
f 10/17/1 13/16/1 55/18/1 62/19/1 18/20/1 17/21/1
f 10/12/1 17/22/1 15/23/1 8/10/1
f 9/9/1 8/8/1 15/24/1 16/25/1
f 117/26/2 143/27/2 90/28/2 91/29/2
f 20/30/1 19/31/1 22/32/1 23/33/1
f 23/33/1 22/32/1 24/34/1 25/35/1
f 24/34/1 22/32/1 26/36/1 27/37/1
f 27/37/1 26/36/1 28/38/1 29/39/1
f 26/36/1 21/40/1 30/41/1 28/38/1
f 28/38/1 30/41/1 161/42/1 33/43/1 31/44/1
f 29/39/1 28/38/1 31/44/1 32/45/1
f 31/44/1 33/43/1 36/46/1 34/47/1
f 32/45/1 31/44/1 34/47/1 35/48/1
f 40/49/1 45/50/1 39/51/1 36/46/1 33/43/1
f 33/43/1 161/42/1 42/52/1 40/49/1
f 38/53/1 41/54/1 42/55/1 37/56/1
f 42/55/1 41/54/1 40/57/1
f 44/58/1 38/53/1 37/56/1 43/59/1
f 43/59/1 18/60/1 44/58/1
f 45/50/1 47/61/1 46/62/1 39/51/1
f 40/49/1 47/61/1 45/50/1
f 48/63/1 49/64/1 50/65/1
f 46/62/1 50/66/1 49/67/1 39/51/1
f 51/68/1 52/69/1 54/70/1 57/71/1 53/72/1
f 13/16/1 51/68/1 53/72/1 61/73/1 55/18/1
f 56/74/1 48/75/1 58/76/1
f 54/77/1 56/74/1 58/76/1 59/78/1
f 60/79/1 57/71/1 54/70/1 59/80/1
f 57/71/1 60/79/1 53/72/1
f 18/20/1 62/19/1 63/81/1
f 64/82/1 63/81/1 62/19/1 55/18/1
f 61/73/1 53/72/1 65/83/1
f 61/73/1 65/83/1 64/82/1 55/18/1
f 14/15/1 66/84/1 51/68/1 13/16/1
f 12/14/1 68/85/1 66/84/1 14/15/1
f 52/69/1 51/68/1 66/84/1 67/86/1
f 69/87/1 68/85/1 71/88/1 70/89/1
f 68/85/1 12/14/1 11/13/1 71/88/1
f 66/84/1 68/85/1 69/87/1 67/86/1
f 34/47/1 36/46/1 74/90/1 72/91/1
f 35/48/1 34/47/1 72/91/1 73/92/1
f 69/87/1 70/89/1 78/93/1 77/94/1
f 67/86/1 69/87/1 77/94/1 76/95/1
f 52/69/1 67/86/1 76/95/1 75/96/1
f 39/51/1 80/97/1 74/90/1 36/46/1
f 54/70/1 52/69/1 75/96/1 79/98/1
f 49/67/1 82/99/1 80/97/1 39/51/1
f 81/100/1 56/74/1 54/77/1 79/101/1
f 48/102/1 83/103/1 82/99/1 49/67/1
f 48/75/1 56/74/1 81/100/1 83/104/1
f 78/105/3 70/106/3 99/107/3 107/108/3
f 81/109/4 110/110/4 112/111/4 83/112/4
f 70/106/3 71/113/3 100/114/3 99/107/3
f 23/115/5 25/116/5 94/117/5 92/118/5
f 1/119/3 3/120/3 85/121/3 84/122/3
f 71/113/3 11/123/3 89/124/3 100/114/3
f 29/125/6 32/126/6 97/127/6 96/128/6
f 9/129/5 16/130/5 90/28/5 88/131/5
f 11/123/3 5/132/3 87/133/3 89/124/3
f 24/134/6 27/135/6 95/136/6 93/137/6
f 3/138/5 4/139/5 86/140/5 85/141/5
f 73/142/4 72/143/4 101/144/4 102/145/4
f 74/146/4 80/147/4 109/148/4 103/149/4
f 72/143/4 74/146/4 103/149/4 101/144/4
f 79/150/4 75/151/4 104/152/4 108/153/4
f 5/132/3 1/119/3 84/122/3 87/133/3
f 32/126/6 35/154/6 98/155/6 97/127/6
f 27/135/6 29/125/6 96/128/6 95/136/6
f 35/154/6 73/156/6 102/157/6 98/155/6
f 80/147/4 82/158/4 111/159/4 109/148/4
f 75/151/4 76/160/4 105/161/4 104/152/4
f 79/162/4 108/163/4 110/110/4 81/109/4
f 76/160/4 77/164/4 106/165/4 105/161/4
f 20/166/5 23/115/5 92/118/5 91/167/5
f 77/164/4 78/168/4 107/169/4 106/165/4
f 82/158/4 83/170/4 112/171/4 111/159/4
f 4/139/7 9/129/7 88/131/7 86/140/7
f 25/172/6 24/134/6 93/137/6 94/173/6
f 21/174/5 26/175/5 120/176/5 118/177/5
f 53/178/8 60/179/8 132/180/8 129/181/8
f 47/182/9 40/183/9 122/184/9 126/185/9
f 65/186/10 53/178/10 129/181/10 135/187/10
f 44/188/11 124/189/11 121/190/11 38/191/11
f 8/192/12 115/193/12 114/194/12 7/195/12
f 26/196/3 22/197/3 119/198/3 120/199/3
f 64/200/13 65/186/13 135/187/13 134/201/13
f 48/202/14 127/203/14 130/204/14 58/205/14
f 22/206/4 19/207/4 117/208/4 119/209/4
f 18/210/15 116/211/15 124/189/15 44/188/15
f 38/212/16 121/213/16 123/214/16 41/215/16
f 18/216/17 63/217/17 133/218/17 116/219/17
f 21/220/6 118/221/6 117/222/6 19/223/6
f 50/224/18 128/225/18 127/203/18 48/202/18
f 2/226/19 7/195/19 114/194/19 113/227/19
f 58/205/20 130/204/20 131/228/20 59/229/20
f 50/230/21 46/231/21 125/232/21 128/233/21
f 8/234/4 2/235/4 113/236/4 115/237/4
f 46/238/22 47/182/22 126/185/22 125/239/22
f 63/217/23 64/240/23 134/241/23 133/218/23
f 41/215/24 123/214/24 122/242/24 40/243/24
f 60/179/25 59/244/25 131/245/25 132/180/25
f 143/27/2 142/246/2 144/247/2 115/248/2
f 117/249/2 118/250/2 142/251/2 143/252/2
f 141/253/2 140/254/2 118/255/2 120/256/2
f 139/257/2 140/254/2 141/253/2 138/258/2
f 137/259/2 136/260/2 139/257/2 138/258/2
f 101/261/2 103/262/2 136/260/2 137/259/2
f 101/261/2 137/259/2 98/263/2 102/264/2
f 97/265/2 98/263/2 137/259/2 138/258/2
f 96/266/2 97/265/2 138/258/2 141/253/2
f 96/266/2 141/253/2 120/256/2 95/267/2
f 94/268/2 93/269/2 119/270/2 92/271/2
f 95/267/2 120/256/2 119/270/2 93/269/2
f 92/271/2 119/270/2 117/26/2 91/29/2
f 17/22/1 21/220/1 19/223/1 15/24/1
f 90/272/2 143/27/2 115/248/2 88/273/2
f 88/273/2 115/248/2 113/274/2 86/275/2
f 84/276/2 85/277/2 86/275/2 113/274/2
f 107/278/2 99/279/2 151/280/2 106/281/2
f 99/279/2 100/282/2 147/283/2 151/280/2
f 100/282/2 89/284/2 146/285/2 147/283/2
f 146/285/2 89/284/2 87/286/2 145/287/2
f 87/286/2 84/276/2 113/274/2 145/287/2
f 114/288/2 145/287/2 113/274/2
f 115/289/2 144/290/2 114/291/2
f 152/292/2 104/293/2 105/294/2 150/295/2
f 106/281/2 151/280/2 150/295/2 105/294/2
f 147/283/2 148/296/2 150/295/2 151/280/2
f 149/297/2 148/296/2 147/283/2 146/285/2
f 146/285/2 145/287/2 114/288/2 149/297/2
f 150/295/2 148/296/2 154/298/2 152/292/2
f 153/299/2 154/298/2 148/296/2 149/297/2
f 144/290/2 153/300/2 149/301/2 114/291/2
f 142/251/2 118/250/2 140/302/2 156/303/2 116/304/2
f 144/247/2 142/246/2 116/305/2 157/306/2 153/299/2
f 109/307/2 155/308/2 136/260/2 103/262/2
f 136/260/2 155/308/2 122/309/2 139/257/2
f 140/254/2 139/257/2 122/309/2 156/310/2
f 153/299/2 157/306/2 129/311/2 154/298/2
f 108/312/2 104/293/2 152/292/2 158/313/2
f 110/314/2 108/312/2 158/313/2 159/315/2
f 110/316/2 159/317/2 127/318/2 112/319/2
f 111/320/2 160/321/2 155/308/2 109/307/2
f 111/320/2 112/322/2 127/323/2 160/321/2
f 152/292/2 154/298/2 129/311/2 158/313/2
f 37/56/1 42/55/1 161/324/1 30/325/1
f 17/22/1 18/60/1 43/59/1 37/56/1 30/41/1 21/220/1
f 90/28/5 16/130/5 20/166/5 91/167/5
f 16/130/1 15/24/1 19/31/1 20/166/1
