# Blender v2.82 (sub 7) OBJ File: 'Peg Game.blend'
# www.blender.org
mtllib Triangle.mtl
o Triangle_Cube.001
v -1.600000 0.532300 -0.296042
v -1.600000 -0.532300 -0.296042
v -2.000000 0.532300 0.303958
v -2.400000 0.532300 -0.296042
v -2.000000 -0.532300 0.303958
v -2.400000 -0.532300 -0.296042
vt 0.375000 0.500000
vt 0.625000 0.250000
vt 0.625000 0.000000
vt 0.375000 0.750000
vt 0.125000 0.750000
vt 0.375000 0.000000
vt 0.375000 0.250000
vt 0.125000 0.500000
vn 0.8321 0.0000 0.5547
vn 0.0000 -1.0000 0.0000
vn -0.8321 0.0000 0.5547
vn 0.0000 0.0000 -1.0000
vn 0.0000 1.0000 0.0000
usemtl Material.001
s off
f 1/1/1 3/2/1 5/3/1 2/4/1
f 5/3/2 6/5/2 2/4/2
f 6/6/3 5/3/3 3/2/3 4/7/3
f 4/8/4 1/1/4 2/4/4 6/5/4
f 1/1/5 4/7/5 3/2/5
